<svg enable-background="new 0 0 24 24" height="512" viewBox="0 0 24 24" width="512" xmlns="http://www.w3.org/2000/svg"><path d="m12 24c-.118 0-.236-.042-.331-.125-.354-.313-8.669-7.731-8.669-14.875 0-4.962 4.037-9 9-9s9 4.038 9 9c0 7.144-8.315 14.562-8.669 14.875-.095.083-.213.125-.331.125zm0-23c-4.411 0-8 3.589-8 8 0 5.917 6.451 12.359 8 13.82 1.549-1.461 8-7.902 8-13.82 0-4.411-3.589-8-8-8z"/><path d="m13 14h-2c-.276 0-.5-.224-.5-.5v-3.5h-2c-.276 0-.5-.224-.5-.5v-2c0-.276.224-.5.5-.5h2v-1.5c0-.276.224-.5.5-.5h2c.276 0 .5.224.5.5v1.5h2c.276 0 .5.224.5.5v2c0 .276-.224.5-.5.5h-2v3.5c0 .276-.224.5-.5.5zm-1.5-1h1v-3.5c0-.276.224-.5.5-.5h2v-1h-2c-.276 0-.5-.224-.5-.5v-1.5h-1v1.5c0 .276-.224.5-.5.5h-2v1h2c.276 0 .5.224.5.5z"/></svg>